Coordinates
version=1
nRows=17
nColumns=24
inDegrees=yes

Units are S.I. units (second, meters, Newtons, ...)
Angles are in degrees.

endheader
time	pelvis_tilt	pelvis_list	pelvis_rotation	pelvis_tx	pelvis_ty	pelvis_tz	hip_flexion_r	hip_adduction_r	hip_rotation_r	knee_angle_r	ankle_angle_r	subtalar_angle_r	mtp_angle_r	hip_flexion_l	hip_adduction_l	hip_rotation_l	knee_angle_l	ankle_angle_l	subtalar_angle_l	mtp_angle_l	lumbar_extension	lumbar_bending	lumbar_rotation
      7.13000000	     -2.35661493	      4.56151001	      2.52697534	      1.31201759	      0.67152908	     -0.21451829	     30.93520185	     -1.30110118	      3.01821541	    -43.15299647	      3.49314547	    -25.67905091	      0.00000000	     -0.84336295	      8.93997928	     -1.74939211	    -10.91340002	     18.75967942	     -5.56238729	      0.00000000	    -12.37582968	    -12.56930983	     -5.61399948
      7.14000000	     -2.31260316	      4.64411330	      3.42050392	      1.32082212	      0.67071780	     -0.21577159	     30.92523332	     -1.97748012	      2.20943847	    -38.96442028	      3.28626129	    -24.81811178	      0.00000000	     -1.82333423	      8.99150654	     -1.22116083	    -10.84086508	     19.31616250	     -5.04305558	      0.00000000	    -12.57872670	    -12.52112854	     -5.95624623
      7.15000000	     -2.49325082	      4.85459448	      4.45620439	      1.32969281	      0.66956628	     -0.21714948	     31.01784417	     -2.89108086	      1.16600609	    -34.64536641	      2.92766619	    -23.65528732	      0.00000000	     -2.57719041	      9.16294523	     -0.54558905	    -10.81084790	     19.82775787	     -4.62114659	      0.00000000	    -12.53368401	    -12.60638830	     -6.39041816
      7.16000000	     -2.39158349	      5.10717827	      5.46378143	      1.33880958	      0.66855816	     -0.21851013	     30.69065823	     -3.87524498	     -0.23752802	    -30.29228854	      3.23359170	    -21.27186190	      0.00000000	     -3.76417203	      9.31256934	      0.11333075	    -10.58926557	     20.30784207	     -4.04894994	      0.00000000	    -12.79410442	    -12.70335029	     -6.79033667
      7.17000000	     -2.46332362	      5.45846332	      6.58486650	      1.34805134	      0.66727975	     -0.21996034	     30.44604726	     -5.00800467	     -1.92775677	    -25.97918069	      3.45906980	    -18.58906125	      0.00000000	     -4.82325280	      9.53877079	      0.93796487	    -10.34742815	     20.71401936	     -3.56805017	      0.00000000	    -12.85482958	    -12.89548906	     -7.30981842
      7.18000000	     -2.52397499	      5.85135978	      7.74826345	      1.35747204	      0.66592496	     -0.22143551	     30.10618548	     -6.17356616	     -3.91103697	    -21.78730907	      3.76407481	    -15.48960338	      0.00000000	     -5.96982362	      9.75862003	      1.85284658	    -10.04013005	     21.03943445	     -3.13046717	      0.00000000	    -12.91926432	    -13.10945107	     -7.87040443
      7.19000000	     -2.60048198	      6.24564422	      8.94306513	      1.36707752	      0.66449259	     -0.22291596	     29.72676802	     -7.30602540	     -6.14246394	    -17.81058457	      4.15426534	    -12.10226912	      0.00000000	     -7.15393822	      9.93053023	      2.85459176	     -9.69793715	     21.30057056	     -2.73516723	      0.00000000	    -12.94625491	    -13.30696038	     -8.45560095
      7.20000000	     -2.73733004	      6.63879355	     10.14959731	      1.37682996	      0.66297573	     -0.22438740	     29.38840233	     -8.39104743	     -8.52854800	    -14.14953552	      4.59377161	     -8.56296850	      0.00000000	     -8.27930156	     10.06295980	      3.87032564	     -9.39394161	     21.45140556	     -2.46161462	      0.00000000	    -12.89197652	    -13.49620687	     -9.05688647
      7.21000000	     -2.84926678	      6.90909480	     11.36896658	      1.38677364	      0.66148520	     -0.22578650	     28.96745918	     -9.26564296	    -10.85937223	    -10.77851596	      5.02166467	     -5.44547843	      0.00000000	     -9.41423861	     10.00600703	      4.94343097	     -9.12805626	     21.64997729	     -2.12398905	      0.00000000	    -12.83321925	    -13.54299687	     -9.66166364
      7.22000000	     -3.06831374	      7.16896405	     12.53317217	      1.39682211	      0.65993538	     -0.22712130	     28.71255803	    -10.07956395	    -13.12677803	     -7.90961512	      5.42270032	     -2.63408278	      0.00000000	    -10.36103941	      9.93439523	      5.91508427	     -9.00470827	     21.72462018	     -1.88816801	      0.00000000	    -12.63423203	    -13.60415492	    -10.15503562
      7.23000000	     -3.27293088	      7.30826409	     13.65443634	      1.40703588	      0.65846496	     -0.22835308	     28.45547842	    -10.70083522	    -15.10877314	     -5.49996949	      5.86097293	     -0.58608343	      0.00000000	    -11.22629121	      9.70317523	      6.81229337	     -9.01760374	     21.80590179	     -1.58959561	      0.00000000	    -12.41184246	    -13.52947372	    -10.60668064
      7.24000000	     -3.45157184	      7.34206672	     14.69669258	      1.41741187	      0.65709877	     -0.22945067	     28.21638535	    -11.14832950	    -16.71440570	     -3.61696547	      6.31815472	      0.60911328	      0.00000000	    -11.98875223	      9.33928033	      7.55616640	     -9.21006131	     21.89643344	     -1.24934222	      0.00000000	    -12.18029627	    -13.33502333	    -11.01921096
      7.25000000	     -3.67872955	      7.34334904	     15.65344844	      1.42793632	      0.65579592	     -0.23043178	     28.13876518	    -11.54383395	    -18.09090170	     -2.40352383	      6.82231608	      1.12371237	      0.00000000	    -12.58908115	      8.95038959	      8.18242662	     -9.57341947	     21.85660388	     -0.86288520	      0.00000000	    -11.87247110	    -13.13474030	    -11.31055804
      7.26000000	     -3.91665514	      7.29819284	     16.53616109	      1.43862784	      0.65456735	     -0.23127521	     28.12712725	    -11.85780804	    -18.93803611	     -1.77885730	      7.27917151	      0.72981610	      0.00000000	    -13.04057328	      8.51360245	      8.66012529	    -10.14826138	     21.71445014	     -0.55508310	      0.00000000	    -11.53425963	    -12.88913766	    -11.64014848
      7.27000000	     -4.06788289	      7.19972603	     17.29809980	      1.44958419	      0.65348964	     -0.23196800	     28.10115447	    -12.06105966	    -19.58345119	     -1.76447335	      7.79666401	      0.10818528	      0.00000000	    -13.50636103	      7.99728524	      9.05047973	    -10.81551239	     21.42612086	     -0.22227239	      0.00000000	    -11.24327067	    -12.56737494	    -11.90966727
      7.28000000	     -4.11894766	      7.06639723	     17.99494933	      1.46079794	      0.65255704	     -0.23253144	     27.98414471	    -12.17276780	    -20.05249862	     -2.21853458	      8.07453082	     -0.86775676	      0.00000000	    -13.98507199	      7.39752472	      9.35765639	    -11.62067947	     21.14810876	      0.24735278	      0.00000000	    -11.03649231	    -12.18684950	    -12.16200686
      7.29000000	     -4.13137813	      6.86331690	     18.59790599	      1.47229725	      0.65166966	     -0.23291047	     27.78756323	    -12.11706535	    -19.91910326	     -2.95605160	      7.92972125	     -2.48121124	      0.00000000	    -14.39511687	      6.69733651	      9.47986712	    -12.56358033	     20.77821586	      0.88938581	      0.00000000	    -10.81876467	    -11.73080129	    -12.40882110
